<svg width="25" height="27" viewBox="0 0 25 27" fill="none" xmlns="http://www.w3.org/2000/svg">
<path fill-rule="evenodd" clip-rule="evenodd" d="M12.5 0.277832C19.4037 0.277832 25 6.38711 25 13.9247C25 19.9529 21.4225 25.0667 16.4587 26.8729C15.825 27.0073 15.6 26.5811 15.6 26.2177C15.6 25.7679 15.615 24.2985 15.615 22.4723C15.615 21.1999 15.215 20.3694 14.7663 19.9461C17.55 19.608 20.475 18.4539 20.475 13.2124C20.475 11.7216 19.99 10.5051 19.1875 9.54947C19.3175 9.20473 19.7462 7.81666 19.065 5.93726C19.065 5.93726 18.0175 5.57159 15.6312 7.33652C14.6325 7.03438 13.5625 6.88236 12.5 6.87703C11.4375 6.88236 10.3688 7.03438 9.37125 7.33652C6.9825 5.57159 5.9325 5.93726 5.9325 5.93726C5.25375 7.81666 5.6825 9.20473 5.81125 9.54947C5.0125 10.5051 4.52375 11.7216 4.52375 13.2124C4.52375 18.4406 7.4425 19.6124 10.2188 19.9571C9.86125 20.2979 9.5375 20.899 9.425 21.7815C8.7125 22.1302 6.9025 22.7337 5.7875 20.648C5.7875 20.648 5.12625 19.3368 3.87125 19.2409C3.87125 19.2409 2.6525 19.2237 3.78625 20.0702C3.78625 20.0702 4.605 20.4895 5.17375 22.0668C5.17375 22.0668 5.9075 24.5025 9.385 23.6772C9.39125 24.8179 9.4025 25.893 9.4025 26.2177C9.4025 26.5785 9.1725 27.0006 8.54875 26.8742C3.58125 25.0706 0 19.9542 0 13.9247C0 6.38711 5.5975 0.277832 12.5 0.277832Z" fill="white"/>
</svg>
