<svg width="25" height="27" viewBox="0 0 25 27" fill="none" xmlns="http://www.w3.org/2000/svg">
<path d="M22.9995 0.280219H2.14058C1.87172 0.266811 1.60301 0.309982 1.34984 0.407287C1.09668 0.504592 0.864027 0.654101 0.665188 0.847248C0.466365 1.04041 0.305259 1.27343 0.191121 1.53296C0.0769829 1.7925 0.012031 2.07345 0 2.35975V24.619C0.0157496 25.2181 0.246338 25.7882 0.644407 26.212C1.04248 26.6358 1.57784 26.8814 2.14058 26.8982H22.9995C23.5465 26.8722 24.0623 26.619 24.4362 26.193C24.8101 25.7669 25.0122 25.202 24.9994 24.619V2.35975C25.004 2.08109 24.9549 1.80441 24.8554 1.54665C24.7558 1.28891 24.6079 1.05552 24.4205 0.86079C24.2333 0.66608 24.0107 0.514158 23.7663 0.414324C23.522 0.31449 23.261 0.268857 22.9995 0.280219ZM7.81232 22.473H4.17178V10.6114H7.81232V22.473ZM6.07798 8.81459C5.82394 8.82403 5.57081 8.77741 5.3345 8.6777C5.09818 8.57798 4.88378 8.4273 4.70478 8.23514C4.52577 8.04297 4.38601 7.81348 4.29429 7.56106C4.20256 7.30863 4.16086 7.03875 4.17178 6.76834C4.16054 6.49501 4.20309 6.22221 4.2967 5.96742C4.3903 5.71262 4.5329 5.48148 4.71531 5.28882C4.89775 5.09614 5.11598 4.94619 5.35602 4.84861C5.59607 4.751 5.85263 4.70791 6.10923 4.72209C6.36328 4.71267 6.61641 4.75927 6.85272 4.85899C7.08904 4.9587 7.30344 5.10938 7.48244 5.30154C7.66145 5.49371 7.80121 5.7232 7.89293 5.97563C7.98466 6.22805 8.02636 6.49794 8.01544 6.76834C8.02667 7.04167 7.98413 7.31447 7.89052 7.56926C7.79691 7.82406 7.65432 8.0552 7.47191 8.24787C7.28947 8.44055 7.07124 8.59049 6.8312 8.68808C6.59115 8.78568 6.33459 8.82877 6.07798 8.81459ZM20.8433 22.473H17.1871V15.9848C17.1871 14.4377 16.6715 13.373 15.3746 13.373C14.9718 13.3766 14.5798 13.5129 14.2526 13.7631C13.9253 14.0133 13.6787 14.3651 13.5466 14.7704C13.445 15.0742 13.4025 15.3968 13.4216 15.7187V22.473H9.8279V10.6114H13.4216V12.275C13.7411 11.65 14.2165 11.1312 14.7956 10.7759C15.3746 10.4207 16.0346 10.2428 16.7027 10.2619C19.0621 10.2619 20.8433 11.9256 20.8433 15.4691V22.473Z" fill="white"/>
</svg>
