<svg width="25" height="27" viewBox="0 0 25 27" fill="none" xmlns="http://www.w3.org/2000/svg">
<path d="M12.5 0.277832C10.0278 0.277832 7.61098 1.05846 5.55537 2.521C3.49976 3.98353 1.89761 6.0623 0.951515 8.49442C0.00542114 10.9265 -0.242126 13.6028 0.240186 16.1847C0.722499 18.7667 1.91301 21.1382 3.66117 22.9998C5.40933 24.8612 7.63661 26.1289 10.0614 26.6425C12.4861 27.1561 14.9995 26.8924 17.2836 25.8849C19.5677 24.8775 21.5198 23.1717 22.8934 20.9828C24.2669 18.7939 25 16.2206 25 13.588C25 10.0579 23.683 6.67244 21.3389 4.1763C18.9947 1.68014 15.8152 0.277832 12.5 0.277832ZM18.6406 9.3953L16.5937 19.694C16.4375 20.4261 16.0313 20.5925 15.4531 20.2597L12.3281 17.7973L10.7656 19.3447C10.692 19.447 10.5975 19.5302 10.4892 19.5879C10.3809 19.6455 10.2617 19.6761 10.1406 19.6774L10.3594 16.3499L16.1406 10.7762C16.4062 10.5433 16.1406 10.4102 15.7656 10.6431L8.67188 15.3849L5.54687 14.3533C4.875 14.137 4.85937 13.6379 5.6875 13.3052L17.7344 8.31385C18.3281 8.13083 18.8281 8.49686 18.6406 9.3953Z" fill="white"/>
</svg>
